<?xml version="1.0" encoding="utf-8"?>
<!-- Generator: Adobe Illustrator 16.0.0, SVG Export Plug-In . SVG Version: 6.00 Build 0)  -->
<!DOCTYPE svg PUBLIC "-//W3C//DTD SVG 1.1//EN" "http://www.w3.org/Graphics/SVG/1.1/DTD/svg11.dtd">
<svg version="1.1" xmlns="http://www.w3.org/2000/svg" xmlns:xlink="http://www.w3.org/1999/xlink" x="0px" y="0px"
	 width="16.208px" height="16.25px" viewBox="0 0 16.208 16.25" enable-background="new 0 0 16.208 16.25" xml:space="preserve">
<g id="Capa_2">
	<rect x="4.712" y="3.845" fill="#516891" width="8.974" height="10.006"/>
	<rect x="-0.542" fill="#516891" width="17.208" height="17.75"/>
</g>
<g id="Capa_1">
	<g>
		<g>
			<path fill="#FFFFFF" d="M8.139,0.187c-4.413,0-7.99,3.577-7.99,7.99s3.577,7.99,7.99,7.99c4.412,0,7.99-3.577,7.99-7.99
				S12.551,0.187,8.139,0.187L8.139,0.187z M11.961,8.818l-4.765,3.279c-0.132,0.09-0.287,0.137-0.442,0.137
				c-0.124,0-0.248-0.03-0.362-0.089c-0.256-0.136-0.417-0.401-0.417-0.689V4.898c0-0.289,0.161-0.555,0.417-0.689
				s0.565-0.116,0.804,0.048l4.765,3.279c0.212,0.145,0.338,0.385,0.338,0.641S12.173,8.673,11.961,8.818L11.961,8.818z
				 M11.961,8.818"/>
		</g>
	</g>
</g>
</svg>
