<?xml version="1.0" encoding="utf-8"?>
<!-- Generator: Adobe Illustrator 16.0.0, SVG Export Plug-In . SVG Version: 6.00 Build 0)  -->
<!DOCTYPE svg PUBLIC "-//W3C//DTD SVG 1.1//EN" "http://www.w3.org/Graphics/SVG/1.1/DTD/svg11.dtd">
<svg version="1.1" id="Capa_1" xmlns="http://www.w3.org/2000/svg" xmlns:xlink="http://www.w3.org/1999/xlink" x="0px" y="0px"
	 width="27.263px" height="36px" viewBox="0 0 27.263 36" enable-background="new 0 0 27.263 36" xml:space="preserve">
<path fill="#FFFFFF" d="M25.504,17.336L7.536,0.561c-0.318-0.297-0.779-0.4-1.193-0.26c-0.417,0.14-0.723,0.496-0.8,0.928
	L1.282,25.436c-0.086,0.479,0.127,0.961,0.539,1.219c0.412,0.259,0.936,0.243,1.331-0.036l5.917-4.215l4.657,12.573
	c0.209,0.627,0.886,0.966,1.514,0.754l6.124-2.047c0.627-0.208,0.966-0.888,0.756-1.513L17.46,19.6l7.259-0.196
	c0.484-0.01,0.913-0.317,1.085-0.77C25.976,18.179,25.857,17.667,25.504,17.336L25.504,17.336z M15.784,17.252
	c-0.379,0.011-0.731,0.198-0.947,0.51c-0.22,0.309-0.273,0.707-0.156,1.065l4.791,12.969l-3.858,1.289l-4.789-12.97
	c-0.121-0.358-0.404-0.639-0.764-0.754c-0.36-0.121-0.755-0.058-1.064,0.16l-4.852,3.456L7.514,3.813L21.74,17.095L15.784,17.252z
	 M15.784,17.252"/>
</svg>
