<?xml version="1.0" encoding="utf-8"?>
<!-- Generator: Adobe Illustrator 16.0.0, SVG Export Plug-In . SVG Version: 6.00 Build 0)  -->
<!DOCTYPE svg PUBLIC "-//W3C//DTD SVG 1.1//EN" "http://www.w3.org/Graphics/SVG/1.1/DTD/svg11.dtd">
<svg version="1.1" id="Capa_1" xmlns="http://www.w3.org/2000/svg" xmlns:xlink="http://www.w3.org/1999/xlink" x="0px" y="0px"
	 width="27.263px" height="36px" viewBox="0 0 27.263 36" enable-background="new 0 0 27.263 36" xml:space="preserve">
<path fill="#FFFFFF" d="M19.871,17.667l-9.484-8.637c-0.168-0.153-0.412-0.206-0.63-0.133C9.536,8.968,9.375,9.151,9.334,9.374
	L7.086,21.836c-0.046,0.247,0.067,0.495,0.284,0.628s0.494,0.125,0.702-0.019l3.123-2.17l2.458,6.473
	c0.11,0.323,0.468,0.497,0.799,0.388l3.232-1.054c0.331-0.106,0.51-0.457,0.399-0.778l-2.459-6.472l3.831-0.101
	c0.256-0.005,0.482-0.164,0.573-0.396C20.119,18.1,20.056,17.836,19.871,17.667L19.871,17.667z M14.74,17.623
	c-0.2,0.005-0.386,0.102-0.5,0.263c-0.116,0.159-0.145,0.363-0.083,0.548l2.529,6.677l-2.037,0.664l-2.528-6.678
	c-0.063-0.184-0.213-0.329-0.403-0.388c-0.19-0.063-0.398-0.03-0.562,0.082L8.596,20.57l1.779-9.867l7.508,6.838L14.74,17.623z
	 M14.74,17.623"/>
</svg>
